<?xml version="1.0" encoding="iso-8859-1"?>
<!-- Generator: Adobe Illustrator 19.0.0, SVG Export Plug-In . SVG Version: 6.00 Build 0)  -->
<svg version="1.1" id="Layer_1" xmlns="http://www.w3.org/2000/svg" xmlns:xlink="http://www.w3.org/1999/xlink" x="0px" y="0px"
	 viewBox="0 0 512 512" style="enable-background:new 0 0 512 512;" xml:space="preserve">
<path style="fill:#E8D6BD;" d="M20.135,443.805l6.765,23.679c2.612,9.124,12.507,16.591,21.999,16.591h414.202
	c9.492,0,19.387-7.467,21.999-16.591l6.765-23.679H20.135z"/>
<path style="fill:#B75548;" d="M440.09,308.314v67.745H54.652c0-16.936-9.204-16.936-9.204-33.873
	c0-16.936,9.204-16.936,9.204-33.873H440.09z"/>
<g>
	<path style="fill:#F7CD95;" d="M440.09,376.059v67.745H54.652c0-16.936-9.204-16.936-9.204-33.873
		c0-16.936,9.204-16.936,9.204-33.873H440.09z"/>
	<path style="fill:#F7CD95;" d="M440.09,240.581v67.734H54.652c0-16.936-9.204-16.936-9.204-33.861
		c0-16.936,9.204-16.936,9.204-33.873H440.09z"/>
</g>
<path style="fill:#EF5352;" d="M269.991,109.233c22.873,0,41.42,18.547,41.42,41.42c0,30.605-24.806,55.411-55.411,55.411
	s-55.411-24.806-55.411-55.411c0-22.873,18.547-41.42,41.42-41.42c4.913,0,9.619,0.863,13.991,2.428
	C260.372,110.096,265.078,109.233,269.991,109.233z"/>
<path style="fill:#8E4238;" d="M474.607,229.075v214.729H440.09v-67.745v-67.745v-67.734H54.652
	c-9.527,0-17.258-7.732-17.258-17.258c0-9.538,7.732-17.258,17.258-17.258H256h195.596
	C464.252,206.064,474.607,216.419,474.607,229.075z"/>
<g>
	<path style="fill:#700D00;" d="M503.371,435.178h-20.135V229.074c0-17.446-14.194-31.64-31.64-31.64H299.667
		c12.522-11.697,20.371-28.334,20.371-46.781c0-27.596-22.451-50.047-50.047-50.047c-1.534,0-3.056,0.094-4.571,0.232
		c5.264-36.306,36.58-64.289,74.321-64.289c4.767,0,8.629-3.862,8.629-8.629s-3.862-8.629-8.629-8.629
		c-47.321,0-86.424,35.777-91.733,81.698c-1.984-0.238-3.982-0.383-5.998-0.383c-27.596,0-50.047,22.451-50.047,50.047
		c0,18.446,7.849,35.084,20.371,46.781H54.652c-14.274,0-25.888,11.614-25.888,25.888c0,10.929,6.811,20.291,16.409,24.082
		c-0.636,2.173-1.585,3.928-2.706,5.99c-2.516,4.63-5.649,10.394-5.649,21.054c0,10.66,3.133,16.424,5.649,21.056
		c2.064,3.797,3.555,6.54,3.555,12.814s-1.491,9.017-3.555,12.815c-2.517,4.63-5.649,10.394-5.649,21.056
		c0,10.661,3.133,16.424,5.649,21.056c2.064,3.797,3.555,6.54,3.555,12.814c0,6.275-1.491,9.019-3.555,12.817
		c-2.517,4.631-5.649,10.395-5.649,21.059c0,10.662,3.133,16.425,5.649,21.058c0.796,1.465,1.505,2.774,2.078,4.188H8.629
		c-4.767,0-8.629,3.862-8.629,8.629c0,4.767,3.862,8.629,8.629,8.629h4.996l4.977,17.417c3.661,12.815,16.968,22.852,30.297,22.852
		h414.202c13.328,0,26.635-10.039,30.298-22.852l4.976-17.417h4.996c4.767,0,8.629-3.862,8.629-8.629
		C512,439.043,508.138,435.178,503.371,435.178z M209.22,150.652c0-18.08,14.709-32.789,32.789-32.789
		c3.803,0,7.528,0.647,11.076,1.919c0.028,0.01,0.058,0.013,0.085,0.023c0.413,0.144,0.839,0.258,1.278,0.337
		c0.068,0.013,0.137,0.021,0.205,0.031c0.435,0.068,0.877,0.114,1.33,0.114c0.484-0.001,0.927-0.046,1.361-0.114
		c0.069-0.012,0.137-0.018,0.205-0.031c0.44-0.079,0.865-0.194,1.278-0.337c0.028-0.009,0.058-0.013,0.085-0.023
		c3.548-1.273,7.274-1.919,11.076-1.919c18.08,0,32.789,14.709,32.789,32.789c0,25.794-20.985,46.78-46.78,46.78
		S209.22,176.446,209.22,150.652z M54.652,214.691l396.944,0.001c7.931,0,14.382,6.451,14.382,14.382v206.105h-17.258V240.58
		c0-4.767-3.862-8.629-8.629-8.629l-385.438-0.001c-4.759,0-8.629-3.87-8.629-8.629C46.022,218.561,49.893,214.691,54.652,214.691z
		 M57.632,422.75c-2.064-3.798-3.555-6.542-3.555-12.817c0-6.276,1.491-9.02,3.555-12.818c1.735-3.193,3.762-6.925,4.854-12.428
		h343.087c4.767,0,8.629-3.862,8.629-8.629s-3.862-8.629-8.629-8.629H62.486c-1.092-5.502-3.119-9.234-4.854-12.427
		c-2.064-3.797-3.555-6.54-3.555-12.814s1.491-9.018,3.555-12.816c1.735-3.192,3.762-6.924,4.854-12.426h57.173
		c4.767,0,8.629-3.862,8.629-8.629s-3.862-8.629-8.629-8.629H62.486c-1.092-5.502-3.119-9.234-4.854-12.427
		c-2.064-3.797-3.555-6.54-3.555-12.814c0-6.274,1.491-9.017,3.555-12.814c1.735-3.193,3.762-6.925,4.854-12.427l368.975,0.005
		v185.97H62.486C61.394,429.676,59.367,425.943,57.632,422.75z M476.804,465.112c-1.546,5.409-8.078,10.336-13.703,10.336H48.899
		c-5.626,0-12.157-4.927-13.702-10.336l-3.621-12.676h448.85L476.804,465.112z"/>
	<path style="fill:#700D00;" d="M405.573,299.689H154.175c-4.767,0-8.629,3.862-8.629,8.629s3.862,8.629,8.629,8.629h251.398
		c4.767,0,8.629-3.862,8.629-8.629S410.34,299.689,405.573,299.689z"/>
</g>
<g>
</g>
<g>
</g>
<g>
</g>
<g>
</g>
<g>
</g>
<g>
</g>
<g>
</g>
<g>
</g>
<g>
</g>
<g>
</g>
<g>
</g>
<g>
</g>
<g>
</g>
<g>
</g>
<g>
</g>
</svg>
