<?xml version="1.0" encoding="iso-8859-1"?>
<!-- Generator: Adobe Illustrator 19.0.0, SVG Export Plug-In . SVG Version: 6.00 Build 0)  -->
<svg version="1.1" id="Layer_1" xmlns="http://www.w3.org/2000/svg" xmlns:xlink="http://www.w3.org/1999/xlink" x="0px" y="0px"
	 viewBox="0 0 501.955 501.955" style="enable-background:new 0 0 501.955 501.955;" xml:space="preserve">
<g>
	<g>
		<polygon style="fill:#FFB86C;" points="18.479,280.576 18.479,491.999 483.545,374.803 483.545,163.097 		"/>
		<path style="fill:#FFB86C;" d="M483.526,162.84c0.005,0.086,0.014,0.171,0.019,0.256v-0.261L483.526,162.84z"/>
		<path style="fill:#EB5989;" d="M483.545,163.097c-0.005-0.086-0.014-0.171-0.019-0.256c-2.214-38.712-28.78-77.043-79.741-106.593
			C352.711,26.633,286.426,11.223,219.512,9.999L18.408,280.576L483.545,163.097z"/>
	</g>
	<polygon style="fill:#3B7BC0;" points="18.479,370.014 18.479,415.015 483.545,297.819 483.545,252.273 	"/>
	<path d="M493.456,161.557c-2.783-43.453-32.798-83.891-84.655-113.961C358.117,18.207,290.958,1.304,219.695,0.001
		c-3.225-0.054-6.284,1.442-8.208,4.033L10.382,274.612c-1.554,2.091-2.191,4.645-1.904,7.12V492c0,6.296,6.684,11.146,12.444,9.697
		L485.988,384.5c4.443-1.12,7.557-5.115,7.557-9.697L493.456,161.557z M224.45,20.12c66,1.93,127.728,17.763,174.318,44.778
		c42.712,24.767,68.632,56.591,73.907,90.374L44.51,263.671l-1.326,0.335L224.45,20.12z M473.545,367.01L28.479,479.166v-56.358
		l445.066-112.156V367.01z M473.545,290.026L28.479,402.182v-24.385L473.545,265.12V290.026z M28.479,357.166v-68.805l23.037-5.832
		l422.03-106.592v68.552L28.479,357.166z"/>
	<path d="M378.638,107.842c-1.702,0-3.428-0.436-5.007-1.352c-15.278-8.858-32.562-16.409-51.369-22.44
		c-5.259-1.687-8.155-7.317-6.469-12.576s7.315-8.154,12.576-6.469c20.173,6.47,38.776,14.605,55.295,24.185
		c4.777,2.77,6.404,8.889,3.634,13.667C385.443,106.055,382.087,107.842,378.638,107.842z"/>
	<path d="M275.247,72.57c-0.539,0-1.086-0.044-1.636-0.135c-11.163-1.837-22.672-3.2-34.207-4.051
		c-5.508-0.406-9.644-5.2-9.238-10.708c0.406-5.509,5.215-9.645,10.708-9.237c12.127,0.895,24.234,2.328,35.984,4.262
		c5.449,0.896,9.14,6.041,8.243,11.491C284.296,69.091,280.056,72.57,275.247,72.57z"/>
	<path d="M306.927,264.485c-4.483,0-8.562-3.036-9.695-7.584c-1.336-5.358,1.926-10.785,7.285-12.121l36.121-9.003
		c5.354-1.335,10.785,1.925,12.121,7.285c1.336,5.358-1.926,10.785-7.285,12.121l-36.121,9.003
		C308.541,264.388,307.728,264.485,306.927,264.485z"/>
	<path d="M62.496,325.405c-4.483,0-8.562-3.036-9.695-7.584c-1.335-5.358,1.926-10.785,7.285-12.121l201.411-50.197
		c5.353-1.335,10.785,1.925,12.121,7.285c1.336,5.358-1.926,10.785-7.285,12.121l-201.41,50.197
		C64.11,325.308,63.296,325.405,62.496,325.405z"/>
</g>
<g>
</g>
<g>
</g>
<g>
</g>
<g>
</g>
<g>
</g>
<g>
</g>
<g>
</g>
<g>
</g>
<g>
</g>
<g>
</g>
<g>
</g>
<g>
</g>
<g>
</g>
<g>
</g>
<g>
</g>
</svg>
