<?xml version="1.0" encoding="iso-8859-1"?>
<!-- Generator: Adobe Illustrator 18.0.0, SVG Export Plug-In . SVG Version: 6.00 Build 0)  -->
<!DOCTYPE svg PUBLIC "-//W3C//DTD SVG 1.1//EN" "http://www.w3.org/Graphics/SVG/1.1/DTD/svg11.dtd">
<svg version="1.1" id="Capa_1" xmlns="http://www.w3.org/2000/svg" xmlns:xlink="http://www.w3.org/1999/xlink" x="0px" y="0px"
	 viewBox="0 0 334.309 334.309" style="enable-background:new 0 0 334.309 334.309;" xml:space="preserve">
<g>
	<g>
		<path d="M285.856,91.869c-6.811-8.754-16.48-13.703-28.731-14.734V40.523c0-4.143-3.358-7.5-7.5-7.5h-25.488V7.5
			c0-4.143-3.358-7.5-7.5-7.5h-32.988c-4.143,0-7.5,3.357-7.5,7.5v42.263H158.16V22.404c0-4.143-3.358-7.5-7.5-7.5h-32.989
			c-4.142,0-7.5,3.357-7.5,7.5v8.518H84.684c-4.142,0-7.5,3.358-7.5,7.5v38.712c-12.251,1.031-21.919,5.98-28.732,14.734
			c-15.058,19.35-9.751,50.351-9.518,51.661c0.006,0.033,37.621,184.774,37.621,184.774c0.711,3.494,3.784,6.004,7.349,6.004
			h166.501c3.565,0,6.638-2.51,7.35-6.004c0,0,37.615-184.741,37.621-184.774C295.607,142.22,300.914,111.219,285.856,91.869z
			 M257.125,92.202c7.37,0.865,12.902,3.768,16.869,8.848c7.639,9.781,7.864,25.155,7.284,33.666h-24.153V92.202z M224.137,48.023
			h17.988v86.692h-5.355c-4.142,0-7.5,3.357-7.5,7.5c0,4.781-1.851,9.457-5.133,13.779V48.023z M191.148,15h17.988v153.378
			c-5.299,2.962-11.393,5.425-17.988,7.207V15z M158.16,64.763h17.988v113.562c-2.959,0.29-5.964,0.442-8.994,0.442
			c-3.031,0-6.035-0.152-8.994-0.442V64.763z M125.171,29.904h17.989v145.681c-6.596-1.782-12.69-4.245-17.989-7.208V29.904z
			 M92.184,45.923h17.987v110.071c-3.282-4.323-5.132-8.997-5.132-13.778c0-4.143-3.358-7.5-7.5-7.5h-5.355V45.923z M60.29,101.081
			c3.968-5.099,9.509-8.012,16.894-8.879v42.514h-24.19C52.365,125.301,53.1,110.321,60.29,101.081z M244.277,319.309H90.031
			L55.499,149.716h35.395c5.622,24.54,38.262,44.051,76.261,44.051s70.639-19.511,76.261-44.051h35.396L244.277,319.309z"/>
		<g>
			<path d="M167.154,299.311c-16.178,0-31.482-4.477-43.093-12.605c-12.424-8.698-19.267-20.525-19.267-33.303
				s6.842-24.605,19.267-33.303c11.61-8.129,26.915-12.605,43.093-12.605c16.178,0,31.482,4.477,43.093,12.605
				c12.425,8.698,19.267,20.525,19.267,33.303s-6.842,24.605-19.267,33.303C198.637,294.835,183.332,299.311,167.154,299.311z
				 M167.154,222.495c-25.672,0-47.359,14.154-47.359,30.908s21.687,30.908,47.359,30.908c25.672,0,47.359-14.154,47.359-30.908
				S192.826,222.495,167.154,222.495z"/>
		</g>
	</g>
</g>
<g>
</g>
<g>
</g>
<g>
</g>
<g>
</g>
<g>
</g>
<g>
</g>
<g>
</g>
<g>
</g>
<g>
</g>
<g>
</g>
<g>
</g>
<g>
</g>
<g>
</g>
<g>
</g>
<g>
</g>
</svg>
