<?xml version="1.0" encoding="iso-8859-1"?>
<!-- Generator: Adobe Illustrator 19.0.0, SVG Export Plug-In . SVG Version: 6.00 Build 0)  -->
<svg xmlns="http://www.w3.org/2000/svg" xmlns:xlink="http://www.w3.org/1999/xlink" version="1.1" id="Layer_1" x="0px" y="0px" viewBox="0 0 455.469 455.469" style="enable-background:new 0 0 455.469 455.469;" xml:space="preserve" width="512" height="512">
<g>
	<path style="fill:#E54728;" d="M370.229,186.983h-26.99v-75.3C360.099,132.153,370.229,158.383,370.229,186.983z"/>
	<path style="fill:#E54728;" d="M286.239,73.603v169.85c-6.31,3.22-13.44,5.03-20.96,5.03h-9.04v-179.9   C266.639,68.963,276.689,70.693,286.239,73.603z"/>
	<path style="fill:#E54728;" d="M199.239,68.583v179.9h-9.04c-7.52,0-14.65-1.81-20.96-5.03V73.603   C178.789,70.693,188.839,68.963,199.239,68.583z"/>
	<path style="fill:#E54728;" d="M112.249,111.673v75.31h-27C85.249,158.383,95.379,132.143,112.249,111.673z"/>
	<path style="fill:#F7B239;" d="M169.239,42.333v201.12c-13.78-7.03-23.63-20.8-25.04-37.17l-1.66-19.3h-30.29V60.333l27-8.53   L169.239,42.333z"/>
	<path style="fill:#F7B239;" d="M343.239,35.493v151.49h-30.3l-1.67,19.3c-1.41,16.37-11.26,30.14-25.03,37.17V51.993l27-7.82   L343.239,35.493z"/>
	<polygon style="fill:#F7B239;" points="256.239,7.503 256.239,248.483 199.239,248.483 199.239,19.503 226.239,13.824  "/>
	<polygon style="fill:#E6E6E6;" points="359.189,294.983 349.079,393.973 106.399,393.973 96.279,294.983 96.289,294.983  "/>
	<polygon style="fill:#F95428;" points="349.079,393.973 343.559,447.973 111.919,447.973 106.399,393.973  "/>
	<polygon style="fill:#E09B2D;" points="139.249,51.804 139.249,186.983 112.249,186.983 112.249,60.333  "/>
	<polygon style="fill:#E09B2D;" points="226.239,13.824 226.239,248.483 199.239,248.483 199.239,19.503  "/>
	<path style="fill:#E09B2D;" d="M313.239,44.173v142.81h-0.3l-1.67,19.3c-1.41,16.37-11.26,30.14-25.03,37.17V51.993L313.239,44.173   z"/>
	<path style="fill:#F95428;" d="M370.229,186.983l-11.04,108h-262.9h-0.01l-11.04-108h0.01h27h30.29l1.66,19.3   c1.41,16.37,11.26,30.14,25.04,37.17c6.31,3.22,13.44,5.03,20.96,5.03h9.04h57h9.04c7.52,0,14.65-1.81,20.96-5.03   c13.77-7.03,23.62-20.8,25.03-37.17l1.67-19.3h30.3H370.229z"/>
	<g>
		<polygon style="fill:#CCCCCC;" points="152.399,393.973 106.399,393.973 96.279,294.983 142.279,294.983   "/>
		<polygon style="fill:#E54728;" points="157.919,447.973 111.919,447.973 106.399,393.973 152.399,393.973   "/>
		<polygon style="fill:#E54728;" points="131.239,186.983 142.279,294.983 96.279,294.983 85.239,186.983   "/>
	</g>
	<path style="fill:#FFFFFF;" d="M322.8,432.474c-0.255,0-0.512-0.013-0.771-0.04c-4.121-0.421-7.12-4.103-6.699-8.223   l19.416-190.025c0.421-4.12,4.109-7.126,8.224-6.698c4.121,0.421,7.12,4.103,6.698,8.224l-19.416,190.024   C329.857,429.597,326.599,432.474,322.8,432.474z"/>
	<circle style="fill:#FFFFFF;" cx="344.765" cy="210.29" r="7.5"/>
	<path style="fill:#333333;" d="M377.723,186.867c-0.025-28.211-9.588-55.736-26.989-77.831V35.49c0-2.358-1.109-4.579-2.994-5.995   c-1.886-1.417-4.327-1.863-6.591-1.209l-57,16.499c-3.208,0.928-5.415,3.865-5.415,7.204v11.923c-4.942-1.081-9.95-1.867-15-2.344   V7.5c0-2.26-1.02-4.4-2.774-5.824c-1.756-1.424-4.059-1.98-6.27-1.515l-57,12c-3.471,0.731-5.955,3.792-5.955,7.339v42.068   c-5.05,0.477-10.058,1.263-15,2.344V42.336c0-2.39-1.139-4.637-3.066-6.049c-1.928-1.413-4.413-1.823-6.692-1.103l-56.99,17.999   c-3.12,0.985-5.241,3.88-5.241,7.152v48.689c-17.419,22.106-26.986,49.655-26.999,77.896c-0.002,0.274,0.009,0.549,0.037,0.825   l26.673,260.987c0.391,3.827,3.614,6.737,7.461,6.737h231.639c3.847,0,7.07-2.911,7.461-6.737l26.673-260.987   C377.719,187.451,377.728,187.159,377.723,186.867z M362.444,179.482h-11.71V136.82   C357.429,150.056,361.43,164.583,362.444,179.482z M335.734,45.469v134.014h-22.797c-3.892,0-7.138,2.977-7.473,6.855   l-1.666,19.304c-0.771,8.92-4.451,16.865-10.064,22.954V57.626L335.734,45.469z M278.734,79.315v159.286   c-4.191,1.535-8.722,2.378-13.458,2.378h-1.542V76.641C268.797,77.184,273.809,78.081,278.734,79.315z M248.734,16.743v224.236h-42   V25.585L248.734,16.743z M191.735,76.641v164.338h-1.54c-4.737,0-9.269-0.843-13.46-2.379V79.315   C181.66,78.081,186.672,77.184,191.735,76.641z M161.735,52.57v176.022c-5.611-6.089-9.29-14.032-10.061-22.951l-1.668-19.305   c-0.335-3.877-3.58-6.854-7.472-6.854h-22.79V65.832L161.735,52.57z M104.744,179.482h-11.72   c1.014-14.911,5.019-29.445,11.72-42.686V179.482z M104.586,302.48h246.299l-8.584,83.99H113.17L104.586,302.48z M118.689,440.469   l-3.986-39h226.066l-3.986,39H118.689z M352.419,287.48H103.053l-9.504-92.997h42.105l1.076,12.45   c1.159,13.418,7.263,25.823,17.188,34.928c9.925,9.104,22.808,14.119,36.277,14.119h75.081c13.469,0,26.352-5.014,36.277-14.119   c9.925-9.104,16.029-21.509,17.189-34.928l1.074-12.45h42.105L352.419,287.48z"/>
</g>















</svg>
